<?xml version="1.0" encoding="UTF-8" standalone="no"?>
<svg width="229px" height="225px" viewBox="0 0 229 225" version="1.1" xmlns="http://www.w3.org/2000/svg" xmlns:xlink="http://www.w3.org/1999/xlink" xmlns:sketch="http://www.bohemiancoding.com/sketch/ns">
    <!-- Generator: Sketch 3.0.1 (7597) - http://www.bohemiancoding.com/sketch -->
    <title>HC Logo</title>
    <description>Created with Sketch.</description>
    <defs></defs>
    <g id="Page-1" stroke="none" stroke-width="1" fill="none" fill-rule="evenodd" sketch:type="MSPage">
        <g id="Final_Project2" sketch:type="MSArtboardGroup" transform="translate(-591.000000, -187.000000)" fill="#799AC4">
            <g id="WallGraphic" sketch:type="MSLayerGroup" transform="translate(-4.000000, -9.000000)">
                <g id="HC-Logo" transform="translate(593.000000, 196.000000)">
                    <text id="Holy-Cross" sketch:type="MSTextLayer" font-family="Helvetica" font-size="32.4345592" font-weight="normal">
                        <tspan x="0" y="218">Holy Cross</tspan>
                    </text>
                    <text id="Kids" sketch:type="MSTextLayer" font-family="Helvetica" font-size="32.4345592" font-weight="normal">
                        <tspan x="169" y="218">Kids</tspan>
                    </text>
                    <g id="Group" transform="translate(47.000000, 0.000000)" sketch:type="MSShapeGroup">
                        <path d="M76,152 C34.0851648,152 0,117.901339 0,75.9913014 C0,34.0812636 34.1025641,0 76,0 C117.897436,0 152,34.0986609 152,75.9913014 C152,117.918736 117.914835,152 76,152 L76,152 Z M76,8 C38.5097038,8 8,38.4923391 8,76 C8,113.490296 38.4923391,144 76,144 C113.507661,144 144,113.490296 144,76 C143.982635,38.5097038 113.490296,8 76,8 L76,8 Z" id="Shape"></path>
                    </g>
                    <path d="M104,48 L116.732095,48 L116.732095,82.9993902 L131.798408,68.6103659 L125.467728,68.6103659 L125.467728,64.3527439 L143.434129,64.3527439 L143.434129,68.6103659 L137.934571,68.6103659 L123.94695,81.9393293 L139.083996,100.499085 L144,100.499085 L144,105 L128.597701,105 L128.597701,100.742378 L133.584439,100.742378 L120.852343,85.1195122 L116.696729,88.8731707 L116.696729,100.568598 L123.345712,100.568598 L123.345712,104.982622 L104.088417,104.982622 L104.088417,100.568598 L111.161804,100.568598 L111.161804,52.2402439 L104,52.2402439 L104,48 L104,48 Z" id="Shape" sketch:type="MSShapeGroup"></path>
                </g>
            </g>
        </g>
    </g>
</svg>