<?xml version="1.0" encoding="utf-8"?>
<!-- Generator: Adobe Illustrator 17.1.0, SVG Export Plug-In . SVG Version: 6.00 Build 0)  -->
<!DOCTYPE svg PUBLIC "-//W3C//DTD SVG 1.1//EN" "http://www.w3.org/Graphics/SVG/1.1/DTD/svg11.dtd">
<svg version="1.1" id="Layer_1" xmlns="http://www.w3.org/2000/svg" xmlns:xlink="http://www.w3.org/1999/xlink" x="0px" y="0px"
	 viewBox="0 0 996.512 102.326" enable-background="new 0 0 996.512 102.326" xml:space="preserve">
<g>
	<g>
		<g>
			<path fill="#65656A" d="M161.279,60.893l4.368-1.634c0.242-0.09,0.511,0.009,0.647,0.229c1.853,3,4.264,4.987,7.239,4.987
				c3.734,0,5.858-2.585,5.858-6.088c0-7.178-15.505-10.337-15.505-20.387c0-5.513,4.536-9.378,9.59-9.378
				c3.533,0,7.164,1.413,8.864,5.101c0.117,0.253,0.013,0.563-0.228,0.704l-3.121,1.828c-0.229,0.134-0.516,0.07-0.689-0.132
				c-1.533-1.788-3.375-2.146-4.654-1.913c-2.09,0.38-3.675,1.665-3.675,3.847c0,5.686,15.564,9.304,15.564,20.272
				c0,6.72-5.226,11.721-12.06,11.716c-5.024-0.004-10.211-2.559-12.521-8.432C160.844,61.329,160.994,60.999,161.279,60.893z"/>
			<path fill="#65656A" d="M11.857,69.484V30.171c0-0.417,0.338-0.755,0.755-0.755h15.71c8.224,0,12.947,5.365,12.947,12.772
				c0,7.582-5.015,12.714-12.947,12.714h-9.527c-0.417,0-0.755,0.338-0.755,0.755v13.828c0,0.417-0.338,0.755-0.755,0.755h-4.673
				C12.195,70.239,11.857,69.901,11.857,69.484z M35.204,42.187c0-4.316-2.625-7.057-7.523-7.057h-8.887
				c-0.417,0-0.755,0.338-0.755,0.755v12.545c0,0.417,0.338,0.755,0.755,0.755h8.887C32.755,49.186,35.204,46.445,35.204,42.187z"/>
			<path fill="#65656A" d="M57.942,69.524V30.131c0-0.395,0.32-0.715,0.715-0.715h15.75c8.224,0,12.948,5.365,12.948,12.772
				c0,4.941-2.114,8.824-5.788,10.947c-0.317,0.183-0.457,0.563-0.311,0.899l6.652,15.204c0.207,0.472-0.139,1.002-0.655,1.002
				h-5.201c-0.286,0-0.545-0.169-0.66-0.431c-2.149-4.933-4.244-9.92-6.285-14.907h-0.701H64.84c-0.395,0-0.715,0.32-0.715,0.715
				v13.908c0,0.395-0.32,0.715-0.715,0.715h-4.753C58.262,70.239,57.942,69.919,57.942,69.524z M81.289,42.187
				c0-4.316-2.625-7.057-7.523-7.057H64.84c-0.395,0-0.715,0.32-0.715,0.715v12.625c0,0.395,0.32,0.715,0.715,0.715h8.927
				C78.84,49.186,81.289,46.445,81.289,42.187z"/>
			<path fill="#65656A" d="M105.056,54.014c-2.798-14.18,9.022-26.706,23.234-24.96c9.386,1.153,16.97,8.738,18.122,18.124
				c1.746,14.214-10.787,26.035-24.969,23.23C113.239,68.785,106.675,62.219,105.056,54.014z M140.218,49.828
				c0-8.69-6.181-15.105-14.579-15.105c-8.457,0-14.639,6.473-14.639,15.105c0,8.806,6.24,15.163,14.639,15.163
				C133.977,64.99,140.218,58.517,140.218,49.828z"/>
			<path fill="#65656A" d="M204.541,69.454V30.201c0-0.434,0.352-0.785,0.785-0.785h15.681c8.222,0,12.947,5.365,12.947,12.772
				c0,7.582-5.016,12.714-12.947,12.714h-9.498c-0.434,0-0.785,0.352-0.785,0.785v13.767c0,0.434-0.352,0.785-0.785,0.785h-4.612
				C204.893,70.239,204.541,69.888,204.541,69.454z M227.888,42.187c0-4.316-2.625-7.057-7.523-7.057h-8.856
				c-0.434,0-0.785,0.352-0.785,0.785V48.4c0,0.434,0.352,0.785,0.785,0.785h8.856C225.439,49.186,227.888,46.445,227.888,42.187z"
				/>
			<path fill="#65656A" d="M251.041,54.014c-2.798-14.18,9.022-26.706,23.234-24.96c9.386,1.153,16.97,8.738,18.122,18.124
				c1.746,14.214-10.787,26.035-24.969,23.23C259.224,68.785,252.66,62.219,251.041,54.014z M286.203,49.828
				c0-8.69-6.181-15.105-14.579-15.105c-8.457,0-14.638,6.473-14.638,15.105c0,8.806,6.24,15.163,14.638,15.163
				C279.963,64.99,286.203,58.517,286.203,49.828z"/>
			<path fill="#65656A" d="M309.235,69.436V30.219c0-0.443,0.359-0.803,0.803-0.803h15.663c8.222,0,12.947,5.365,12.947,12.772
				c0,4.91-2.088,8.776-5.72,10.908c-0.354,0.208-0.512,0.634-0.347,1.01l6.566,15.009c0.232,0.53-0.157,1.124-0.735,1.124h-5.009
				c-0.321,0-0.612-0.19-0.74-0.484c-2.141-4.916-4.228-9.885-6.261-14.854h-0.699h-9.481c-0.443,0-0.803,0.359-0.803,0.803v13.732
				c0,0.443-0.359,0.803-0.803,0.803h-4.577C309.594,70.239,309.235,69.88,309.235,69.436z M332.582,42.187
				c0-4.316-2.623-7.057-7.523-7.057h-8.839c-0.443,0-0.803,0.359-0.803,0.803v12.45c0,0.443,0.359,0.803,0.803,0.803h8.839
				C330.133,49.186,332.582,46.445,332.582,42.187z"/>
			<path fill="#65656A" d="M367.571,69.507V35.921c0-0.405-0.328-0.732-0.732-0.732h-10.217c-0.405,0-0.732-0.328-0.732-0.732
				v-4.308c0-0.405,0.328-0.732,0.732-0.732h28.14c0.405,0,0.732,0.328,0.732,0.732v4.308c0,0.405-0.328,0.732-0.732,0.732h-10.217
				c-0.405,0-0.732,0.328-0.732,0.732v33.585c0,0.405-0.328,0.732-0.732,0.732h-4.776C367.899,70.239,367.571,69.911,367.571,69.507
				z"/>
		</g>
		<g opacity="0.75">
			<path fill="#65656A" d="M521.723,70.069h-4.301l-3.78-31.916c-0.174-1.163-0.29-2.325-0.29-2.617
				c-0.116,0.349-0.407,1.453-0.756,2.5l-11.336,32.032h-2.558l-11.395-32.032c-0.407-0.988-0.756-2.209-0.814-2.5
				c0,0.233-0.116,1.57-0.233,2.617l-3.721,31.916h-4.301l5.581-40.694h4.301l11.219,30.869l0.582,2.035
				c0.057-0.233,0.29-1.279,0.581-2.035l11.337-30.869h4.301L521.723,70.069z"/>
			<path fill="#65656A" d="M564.741,57.105h-13.429l-3.954,12.964h-4.418l13.137-40.694h3.896l13.139,40.694h-4.36L564.741,57.105z
				 M552.357,53.617h11.337l-4.651-15.173c-0.523-1.57-0.989-3.662-0.989-3.837c-0.057,0.175-0.581,2.267-1.047,3.837
				L552.357,53.617z"/>
			<path fill="#65656A" d="M621.07,70.069H617V59.024l-15.929-21.685c-0.581-0.639-0.988-1.453-1.047-1.569
				c0,0.116,0.116,1.162,0.116,1.977v32.322h-4.068V29.375h4.36l15.637,21.509c0.523,0.756,0.989,1.628,1.047,1.686
				c0-0.116-0.116-1.105-0.116-2.035V29.375h4.07V70.069z"/>
			<path fill="#65656A" d="M665.832,57.105h-13.429l-3.954,12.964h-4.418l13.137-40.694h3.896l13.139,40.694h-4.36L665.832,57.105z
				 M653.448,53.617h11.337l-4.651-15.173c-0.523-1.57-0.989-3.662-0.989-3.837c-0.057,0.175-0.581,2.267-1.047,3.837
				L653.448,53.617z"/>
			<path fill="#65656A" d="M713.793,70.65c-11.569,0-20.929-9.36-20.929-20.928c0-11.511,9.361-20.928,20.929-20.928
				c5.755,0,10.986,2.325,14.766,6.104l-2.849,2.906c-3.022-3.023-7.266-5.174-11.917-5.174c-9.36,0-16.859,7.791-16.859,17.092
				c0,9.36,7.499,17.091,16.859,17.091c4.592,0,7.906-1.162,10.812-3.721V52.106h-10.871v-3.837h14.941V64.43
				C724.896,68.267,719.607,70.65,713.793,70.65z"/>
			<path fill="#65656A" d="M777.157,70.069h-21.741V29.375h21.741v3.836h-17.673v13.72h14.128v3.837h-14.128v15.463h17.673V70.069z"
				/>
			<path fill="#65656A" d="M845.057,70.069h-4.303l-3.778-31.916c-0.174-1.163-0.29-2.325-0.29-2.617
				c-0.116,0.349-0.407,1.453-0.756,2.5l-11.336,32.032h-2.558l-11.395-32.032c-0.407-0.988-0.756-2.209-0.814-2.5
				c0,0.233-0.116,1.57-0.233,2.617l-3.721,31.916h-4.301l5.581-40.694h4.301l11.219,30.869l0.582,2.035
				c0.057-0.233,0.29-1.279,0.581-2.035l11.336-30.869h4.303L845.057,70.069z"/>
			<path fill="#65656A" d="M892.957,70.069h-21.741V29.375h21.741v3.836h-17.673v13.72h14.128v3.837h-14.128v15.463h17.673V70.069z"
				/>
			<path fill="#65656A" d="M944.114,70.069h-4.07V59.024l-15.929-21.685c-0.581-0.639-0.988-1.453-1.045-1.569
				c0,0.116,0.115,1.162,0.115,1.977v32.322h-4.068V29.375h4.36l15.637,21.509c0.523,0.756,0.989,1.628,1.047,1.686
				c0-0.116-0.116-1.105-0.116-2.035V29.375h4.07V70.069z"/>
			<path fill="#65656A" d="M976.668,70.069V33.212h-9.302v-3.836h22.672v3.836h-9.302v36.857H976.668z"/>
		</g>
		<path fill="#65656A" d="M433.664,89.118h-3.597c-0.574,0-1.039-0.465-1.039-1.039V11.232c0-0.574,0.465-1.039,1.039-1.039h3.597
			c0.574,0,1.039,0.465,1.039,1.039v76.847C434.704,88.653,434.238,89.118,433.664,89.118z"/>
	</g>
</g>
</svg>
