<?xml version="1.0" encoding="utf-8"?>
<!-- Generator: Adobe Illustrator 17.1.0, SVG Export Plug-In . SVG Version: 6.00 Build 0)  -->
<!DOCTYPE svg PUBLIC "-//W3C//DTD SVG 1.1//EN" "http://www.w3.org/Graphics/SVG/1.1/DTD/svg11.dtd">
<svg version="1.1" id="Layer_1" xmlns="http://www.w3.org/2000/svg" xmlns:xlink="http://www.w3.org/1999/xlink" x="0px" y="0px"
	 viewBox="0 0 348.8 76.9" enable-background="new 0 0 348.8 76.9" xml:space="preserve">
<g display="none">
	<g display="inline">
		<path fill="#303C42" d="M7,24.7c4.4-2.2,10-4.4,10.6-4.8c1.1-0.7-2.4-3.9,1.3-9c0.4-0.5,2.5-0.3,5.8,0.5c5.2,1.2,7.6-2,16.7-2.2
			c20.5-0.5,24.2,11,24.2,11.6c0,0.1-0.2,0.4-0.4,0.6c6.5,3.4,9.5,6.7,9.6,7.2c0.1,0.4-0.6,6.8-6.8,12.6c0,0.1-1,6.9-7.6,7.9
			c-0.3,0-6.4-5.7-16.3-3.2c-5.8,1.5-13,6.7-14.6,16c-0.3,1.5-0.4,3.2-0.3,5v0c1.7,1.2,3.5,2.3,5.5,3.3c8.8-4.6,16.8-11.7,22.9-21.8
			c0.5,0.2,1.3,0.7,1.9,1.1c-5.9,10-14.7,18.1-24.3,22.9c-0.2,0.1-0.3,0.1-0.5,0.1c-0.2,0-0.3,0-0.5-0.1C21.6,65.9,12,55.4,6,41.4
			C0.2,27.9,0,16,0,14.8C0,8.7,20.6,0,34.9,0c14.4,0,34.9,8.7,34.9,14.8c0,2-0.3,5.3-0.7,7.9c-0.8-0.5-1.5-0.9-2.1-1.3
			c0.4-2.9,0.6-5.4,0.6-6.6c0-3.5-17.8-12.5-32.7-12.5c-14.9,0-32.7,9-32.7,12.5c0,0.1,0,4.9,1.5,11.7C3.7,26.5,5.8,25.3,7,24.7z
			 M26.4,17.6c-2.1-0.6-1.7,0.5-1.2,1.1c0.5,0.7,1.1,1.1,1.3,1c4.7-1.5,5.2-1.4,5.3-1.5C31.8,18.1,29.7,18.6,26.4,17.6z M4.5,29.8
			c2.3,8.8,6.8,20,15.8,29.4c0,0,1.5-2.5,2.3-3.6c3.8-5.1,8.5-8.4,11.3-9.8c2.6-1.3,0.3-1.5-2.1-4.6c-1.5-1.9-2.1-4.1-1.8-4.2
			c0.3-0.2,4.5,6.8,10.7,5.7c14.6-2.4,20.2,3.1,20.9,3.4c2,0,3.7-2.9,3.7-3.7c0-0.6-5.9-4-10.7-4.5c-0.2-0.9,0.5-1.9,1.7-1.8
			c2.8,0.3,6.4,6.3,11.6,1.9c1.4-1.2,3.4-4.7,4.1-6.2c0.3-0.6,0.8-1.5-0.6-1.3c-1.5,0.2-0.1,1.8-0.5,1.6c-1-0.4-3.2-3-1.9-3.3
			c1-0.3,2.3-0.2,3.5-0.1c0.3,0,0.4,0.1,0.2-0.1c-1.1-1.3-4.1-3.3-6.3-4.5c-1.2-0.7-3-1.5-3.4-1.6c-0.5-0.1-1.2,0-2.3,0.6
			c-1.5,0.8-3.6,1-4,0.6c-0.3-0.3,1.5-0.2,2.1-1.1c0.1-0.2-0.6-1.7-1-1.7c-1.8,0.2-4.4-0.2-4.9-1.2c-0.1-0.2,1.3,0.2,4.3,0
			c1.1-0.1,1.7-0.2,2.5-0.4c0.8-0.2-0.2-0.8,0.2-1c0.5-0.2,2.3,2.3,3.2,2.6c0.3,0.1-0.5-1.4-1-2.1c-1.4-2-5.3-6.3-15.3-7.1
			c-5.9-0.5-11.8,0.7-16,2.1c-2.7,0.9,3.4,1.9,2.7,2c-5.2,0.7-11.6-3.5-12.7-2.1c-1.6,2.1-0.8,6.2,2.6,7.6
			c-4.5,1.5-10.9,4.5-15.4,6.7C6.5,28.8,4.5,29.8,4.5,29.8z"/>
	</g>
</g>
<g display="none">
	<g display="inline">
		<g>
			<path fill="#303C42" d="M102.7,55.3c5,0,8.5,3.6,8.5,8.6c0,5-3.5,8.6-8.5,8.6c-5,0-8.5-3.6-8.5-8.6
				C94.2,58.9,97.7,55.3,102.7,55.3z M102.7,71.1c4.3,0,6.9-3.1,6.9-7.2c0-4.1-2.7-7.2-6.9-7.2c-4.3,0-6.9,3.1-6.9,7.2
				C95.8,67.9,98.4,71.1,102.7,71.1z"/>
		</g>
		<g>
			<path fill="#303C42" d="M114.6,55.7h2l10,14.3h0V55.7h1.5V72h-2l-10-14.3h0V72h-1.5V55.7z"/>
		</g>
		<g>
			<path fill="#303C42" d="M132.5,55.7h1.5v15h7.6V72h-9.1V55.7z"/>
		</g>
		<g>
			<path fill="#303C42" d="M144.1,55.7h1.5V72h-1.5V55.7z"/>
		</g>
		<g>
			<path fill="#303C42" d="M150.1,55.7h2L162,70h0V55.7h1.5V72h-2l-10-14.3h0V72h-1.5V55.7z"/>
		</g>
		<g>
			<path fill="#303C42" d="M168,55.7h10v1.4h-8.5v5.8h7.9v1.4h-7.9v6.4h8.8V72H168V55.7z"/>
		</g>
		<g>
			<path fill="#303C42" d="M187.7,55.7h1.5v7.2h9.1v-7.2h1.5V72h-1.5v-7.8h-9.1V72h-1.5V55.7z"/>
		</g>
		<g>
			<path fill="#303C42" d="M204.4,55.7h1.5V72h-1.5V55.7z"/>
		</g>
		<g>
			<path fill="#303C42" d="M223.9,71c-1.9,1.1-4,1.5-6.1,1.5c-5,0-8.5-3.6-8.5-8.6c0-5,3.5-8.6,8.5-8.6c2.4,0,4.4,0.7,5.9,2.3
				l-1.1,1.2c-1-1.2-3-2-4.8-2c-4.3,0-6.9,3.1-6.9,7.2c0,4.1,2.7,7.2,6.9,7.2c1.8,0,3.3-0.2,4.6-1v-5.5h-3.9v-1.4h5.4V71z"/>
		</g>
		<g>
			<path fill="#303C42" d="M228.4,55.7h1.5v7.2h9.1v-7.2h1.5V72H239v-7.8h-9.1V72h-1.5V55.7z"/>
		</g>
		<g>
			<path fill="#303C42" d="M251.5,69c0.8,1.4,2.1,2.1,3.7,2.1c2.1,0,3.7-1.2,3.7-3.2c0-4.6-8.4-1.9-8.4-8.1c0-2.9,2.5-4.5,5.2-4.5
				c1.8,0,3.3,0.6,4.5,2.1l-1.3,0.9c-0.8-1.1-1.8-1.6-3.2-1.6c-2,0-3.7,1-3.7,3.1c0,4.9,8.4,2,8.4,8.1c0,3-2.4,4.6-5.1,4.6
				c-2.1,0-4-0.7-5.3-2.5L251.5,69z"/>
		</g>
		<g>
			<path fill="#303C42" d="M277.3,69.5c-1.5,2.1-3.7,3-6.1,3c-5,0-8.5-3.6-8.5-8.6c0-5,3.5-8.6,8.5-8.6c2.2,0,4.2,0.7,5.6,2.6
				l-1.2,1c-1-1.5-2.7-2.2-4.4-2.2c-4.3,0-6.9,3.1-6.9,7.2c0,4.1,2.7,7.2,6.9,7.2c1.6,0,3.7-0.8,4.8-2.5L277.3,69.5z"/>
		</g>
		<g>
			<path fill="#303C42" d="M280.1,55.7h1.5v7.2h9.2v-7.2h1.5V72h-1.5v-7.8h-9.2V72h-1.5V55.7z"/>
		</g>
		<g>
			<path fill="#303C42" d="M304.2,55.3c5,0,8.5,3.6,8.5,8.6c0,5-3.5,8.6-8.5,8.6c-5,0-8.5-3.6-8.5-8.6
				C295.7,58.9,299.2,55.3,304.2,55.3z M304.2,71.1c4.3,0,6.9-3.1,6.9-7.2c0-4.1-2.7-7.2-6.9-7.2c-4.3,0-6.9,3.1-6.9,7.2
				C297.2,67.9,299.9,71.1,304.2,71.1z"/>
		</g>
		<g>
			<path fill="#303C42" d="M323.4,55.3c5,0,8.5,3.6,8.5,8.6c0,5-3.5,8.6-8.5,8.6c-5,0-8.5-3.6-8.5-8.6
				C315,58.9,318.4,55.3,323.4,55.3z M323.4,71.1c4.3,0,6.9-3.1,6.9-7.2c0-4.1-2.7-7.2-6.9-7.2c-4.3,0-6.9,3.1-6.9,7.2
				C316.5,67.9,319.2,71.1,323.4,71.1z"/>
		</g>
		<g>
			<path fill="#303C42" d="M335.3,55.7h1.5v15h7.6V72h-9.1V55.7z"/>
		</g>
	</g>
	<g display="inline">
		<g>
			<path fill="#303C42" d="M345.6,55.3c1.8,0,3.2,1.4,3.2,3.2c0,1.8-1.4,3.2-3.2,3.2c-1.8,0-3.2-1.4-3.2-3.2
				C342.4,56.7,343.8,55.3,345.6,55.3z M345.6,61.2c1.5,0,2.7-1.2,2.7-2.7c0-1.5-1.2-2.7-2.7-2.7c-1.5,0-2.7,1.2-2.7,2.7
				C342.9,60,344.1,61.2,345.6,61.2z M344.9,60.3h-0.5v-3.7h1.4c0.8,0,1.2,0.4,1.2,1c0,0.7-0.4,1-0.9,1.1l1.1,1.6h-0.5l-1.1-1.6
				h-0.7V60.3z M344.9,58.3h0.6c0.5,0,1.1,0,1.1-0.6c0-0.5-0.4-0.6-0.8-0.6h-0.8V58.3z"/>
		</g>
	</g>
	<g display="inline">
		<path fill="#8AC640" d="M249.1,32.7c-1.9-4.3-7.1-16.5-7.9-18.3c-1.2-2.7-2.4-4.6-4.8-4.6h-4.5c0,0,14.7,35.6,14.8,35.6
			c1.4,0,2.3,0.2,3.3-2.2c0.5-1.2,10.7-27.5,13-33.4h-5.2C257.9,10,251.1,27.4,249.1,32.7z"/>
		<path fill="#8AC640" d="M151.3,39.1c0,3.3,1.1,6.1,5,6.1c0,0,1.9,0,1.9,0V9.6h-6.9C151.2,9.6,151.3,38,151.3,39.1z"/>
		<rect x="151.2" y="0" fill="#8AC640" width="6.9" height="6.9"/>
		<path fill="#8AC640" d="M280.5,9.6h-3.4c-8.5,0-11.4,5.4-11.3,10.4v16.3c0,4.2,3.3,8.9,10.6,8.9l12.6,0c0,0,0.9-5.1-4-5.1
			c-3.7,0-6.1,0-6.1,0c-4.3,0-6.1-1.6-6.1-6.8l0-5.1l19.1,0V20C291.9,15,289,9.6,280.5,9.6z M284.9,24h-12.2v-4
			c0-4.7,2.4-6.7,6.1-6.7c3.6,0,6,2,6,6.7V24z"/>
		<path fill="#8AC640" d="M133.1,13.7c0-0.9,0-3.6,0-3.6h-6.9v35c0,0,1.9,0,1.9,0c3.9,0,5-2.7,5-6.1c0-1.1,0-17,0-17
			c0-3.1,2.9-6.6,7.3-6.6c2.1,0,3.8,0.3,5.2,0.9V9.8c-1.1-0.2-2.1-0.3-3.2-0.3C138.8,9.5,135.4,11.6,133.1,13.7z"/>
		<path fill="#8AC640" d="M304.6,13.7c0-0.9,0-3.6,0-3.6h-6.9v35c0,0,1.8,0,1.9,0c3.9,0,5-2.7,5-6.1c0-1.1,0-17,0-17
			c0-3.1,2.9-6.6,7.4-6.6c2.1,0,3.8,0.3,5.2,0.9V9.8c-1.1-0.2-2.2-0.3-3.2-0.3C310.3,9.5,306.9,11.6,304.6,13.7z"/>
		<path fill="#8AC640" d="M198,14.9c0-0.5-0.1-1-0.2-1.5c0,0,0,0,0-0.1c-0.1-0.5-0.2-1-0.4-1.4c0,0,0,0,0-0.1
			c-0.2-0.4-0.5-0.8-0.8-1.1c0,0,0,0,0,0c-0.2-0.2-0.3-0.3-0.6-0.4c-0.6-0.4-1.4-0.5-2.4-0.6c0,0-0.1,0-0.1,0h-2
			c0,0-8.9,23.1-9.5,24.6c-0.8-1.9-7.9-17.6-8.8-19.9c-1.2-2.7-2.5-4.6-4.8-4.6h-4.2v0v35.3h4.2h0.5c0,0,0-21.2,0-24
			c1.2,2.6,10.9,24.5,10.9,24.5h0c0.1,0,0.1,0,0.2,0c0,0,0,0,0,0c1.1,0,2.2,0.1,3-2.2c0.3-0.9,4.7-12.1,8.4-21.5
			c0,6.1,0,23.3,0,23.3h6.5V15.8c0-0.3,0-0.5,0-0.8C198,15,198,15,198,14.9z"/>
		<path fill="#8AC640" d="M218.5,9.9l-11.5,0c0,0-0.9,5.1,4.1,5.1c3.8,0,5,0,5,0c4.3,0,6.2,1.6,6.2,6.7V24h-7.9
			c-8.5,0-11.4,5.4-11.3,10.4v0.2c-0.1,5,2.8,10.4,11.3,10.4H229V35l0,0l0-16.3C229.1,14.5,225.8,9.9,218.5,9.9z M222.2,32.4
			L222.2,32.4v8.3h-6.7c-3.7,0-5.5-1.9-5.5-6.4c0.1-4.5,1.9-6.4,5.5-6.4h6.7V32.4z"/>
		<path fill="#8AC640" d="M333.9,9.9l-11.4,0c0,0-0.9,5.1,4.1,5.1c3.7,0,5,0,5,0c4.3,0,6.2,1.6,6.2,6.7V24h-7.9
			c-8.5,0-11.4,5.4-11.3,10.4v0.2c-0.1,5,2.8,10.4,11.3,10.4h14.7V35l0,0V18.7C344.5,14.5,341.2,9.9,333.9,9.9z M337.6,32.4
			L337.6,32.4v8.3h-6.7c-3.7,0-5.5-1.9-5.6-6.4c0.1-4.5,1.9-6.4,5.6-6.4h6.7V32.4z"/>
		<path fill="#8AC640" d="M109.3,0.1h-8.1h-6.9c0,0,0,43.7,0,44.8l6.9,0V4.1c2.3,0,6.8,0,7,0c3.6,0,5.5,2,5.5,6.7v5.1
			c0,4.7-1.9,6.7-5.5,6.7c-0.2,0-1.1,0-1.6,0c-1.9,0-3.5,0.6-3.5,2.9c0,0,0,1.1,0,1.1h6.1c8.5,0,11.4-5.4,11.2-10.4v-5.7
			C120.6,5.5,117.7,0.1,109.3,0.1z"/>
	</g>
</g>
<g>
	<g>
		<g>
			<g>
				<path fill="#303C42" d="M101.7,57.4c5,0,8.5,3.6,8.5,8.6c0,5-3.5,8.6-8.5,8.6c-5,0-8.5-3.6-8.5-8.6
					C93.2,61,96.7,57.4,101.7,57.4z M101.7,73.2c4.3,0,6.9-3.1,6.9-7.2c0-4.1-2.7-7.2-6.9-7.2c-4.3,0-6.9,3.1-6.9,7.2
					C94.8,70.1,97.4,73.2,101.7,73.2z"/>
			</g>
			<g>
				<path fill="#303C42" d="M113.6,57.8h2l10,14.3h0V57.8h1.5v16.4h-2l-10-14.3h0v14.3h-1.5V57.8z"/>
			</g>
			<g>
				<path fill="#303C42" d="M131.5,57.8h1.5v15h7.6v1.4h-9.1V57.8z"/>
			</g>
			<g>
				<path fill="#303C42" d="M143.1,57.8h1.5v16.4h-1.5V57.8z"/>
			</g>
			<g>
				<path fill="#303C42" d="M149.1,57.8h2l10,14.3h0V57.8h1.5v16.4h-2l-10-14.3h0v14.3h-1.5V57.8z"/>
			</g>
			<g>
				<path fill="#303C42" d="M167,57.8h10v1.4h-8.5v5.8h7.9v1.4h-7.9v6.4h8.8v1.4H167V57.8z"/>
			</g>
			<g>
				<path fill="#303C42" d="M186.7,57.8h1.5v7.2h9.1v-7.2h1.5v16.4h-1.5v-7.8h-9.1v7.8h-1.5V57.8z"/>
			</g>
			<g>
				<path fill="#303C42" d="M203.4,57.8h1.5v16.4h-1.5V57.8z"/>
			</g>
			<g>
				<path fill="#303C42" d="M222.9,73.1c-1.9,1.1-4,1.5-6.1,1.5c-5,0-8.5-3.6-8.5-8.6c0-5,3.5-8.6,8.5-8.6c2.4,0,4.4,0.7,5.9,2.3
					l-1.1,1.2c-1-1.2-3-2-4.8-2c-4.3,0-6.9,3.1-6.9,7.2c0,4.1,2.7,7.2,6.9,7.2c1.8,0,3.3-0.2,4.6-1v-5.5h-3.9v-1.4h5.4V73.1z"/>
			</g>
			<g>
				<path fill="#303C42" d="M227.4,57.8h1.5v7.2h9.1v-7.2h1.5v16.4H238v-7.8h-9.1v7.8h-1.5V57.8z"/>
			</g>
			<g>
				<path fill="#303C42" d="M250.5,71.2c0.8,1.4,2.1,2.1,3.7,2.1c2.1,0,3.7-1.2,3.7-3.2c0-4.6-8.4-1.9-8.4-8.1
					c0-2.9,2.5-4.5,5.2-4.5c1.8,0,3.3,0.6,4.5,2.1l-1.3,0.9c-0.8-1.1-1.8-1.6-3.2-1.6c-2,0-3.7,1-3.7,3.1c0,4.9,8.4,2,8.4,8.1
					c0,3-2.4,4.6-5.1,4.6c-2.1,0-4-0.7-5.3-2.5L250.5,71.2z"/>
			</g>
			<g>
				<path fill="#303C42" d="M276.3,71.6c-1.5,2.1-3.7,3-6.1,3c-5,0-8.5-3.6-8.5-8.6c0-5,3.5-8.6,8.5-8.6c2.2,0,4.2,0.7,5.6,2.6
					l-1.2,1c-1-1.5-2.7-2.2-4.4-2.2c-4.3,0-6.9,3.1-6.9,7.2c0,4.1,2.7,7.2,6.9,7.2c1.6,0,3.7-0.8,4.8-2.5L276.3,71.6z"/>
			</g>
			<g>
				<path fill="#303C42" d="M279.1,57.8h1.5v7.2h9.2v-7.2h1.5v16.4h-1.5v-7.8h-9.2v7.8h-1.5V57.8z"/>
			</g>
			<g>
				<path fill="#303C42" d="M303.2,57.4c5,0,8.5,3.6,8.5,8.6c0,5-3.5,8.6-8.5,8.6c-5,0-8.5-3.6-8.5-8.6
					C294.7,61,298.2,57.4,303.2,57.4z M303.2,73.2c4.3,0,6.9-3.1,6.9-7.2c0-4.1-2.7-7.2-6.9-7.2c-4.3,0-6.9,3.1-6.9,7.2
					C296.2,70.1,298.9,73.2,303.2,73.2z"/>
			</g>
			<g>
				<path fill="#303C42" d="M322.4,57.4c5,0,8.5,3.6,8.5,8.6c0,5-3.5,8.6-8.5,8.6c-5,0-8.5-3.6-8.5-8.6
					C314,61,317.4,57.4,322.4,57.4z M322.4,73.2c4.3,0,6.9-3.1,6.9-7.2c0-4.1-2.7-7.2-6.9-7.2c-4.3,0-6.9,3.1-6.9,7.2
					C315.5,70.1,318.2,73.2,322.4,73.2z"/>
			</g>
			<g>
				<path fill="#303C42" d="M334.3,57.8h1.5v15h7.6v1.4h-9.1V57.8z"/>
			</g>
		</g>
		<g>
			<g>
				<path fill="#303C42" d="M344.6,57.4c1.8,0,3.2,1.4,3.2,3.2c0,1.8-1.4,3.2-3.2,3.2c-1.8,0-3.2-1.4-3.2-3.2
					C341.4,58.9,342.8,57.4,344.6,57.4z M344.6,63.4c1.5,0,2.7-1.2,2.7-2.7c0-1.5-1.2-2.7-2.7-2.7c-1.5,0-2.7,1.2-2.7,2.7
					C341.9,62.2,343.1,63.4,344.6,63.4z M343.9,62.5h-0.5v-3.7h1.4c0.8,0,1.2,0.4,1.2,1c0,0.7-0.4,1-0.9,1.1l1.1,1.6h-0.5l-1.1-1.6
					h-0.7V62.5z M343.9,60.4h0.6c0.5,0,1.1,0,1.1-0.6c0-0.5-0.4-0.6-0.8-0.6h-0.8V60.4z"/>
			</g>
		</g>
		<g>
			<path fill="#8AC640" d="M248.1,34.8c-1.9-4.3-7.1-16.5-7.9-18.3c-1.2-2.7-2.4-4.6-4.8-4.6h-4.5c0,0,14.7,35.6,14.8,35.6
				c1.4,0,2.3,0.2,3.3-2.2c0.5-1.2,10.7-27.5,13-33.4h-5.2C256.9,12.2,250.1,29.6,248.1,34.8z"/>
			<path fill="#8AC640" d="M150.3,41.3c0,3.3,1.1,6.1,5,6.1c0,0,1.9,0,1.9,0V11.8h-6.9C150.2,11.8,150.3,40.1,150.3,41.3z"/>
			<rect x="150.2" y="2.2" fill="#8AC640" width="6.9" height="6.9"/>
			<path fill="#8AC640" d="M279.5,11.8h-3.4c-8.5,0-11.4,5.4-11.3,10.4v16.3c0,4.2,3.3,8.9,10.6,8.9l12.6,0c0,0,0.9-5.1-4-5.1
				c-3.7,0-6.1,0-6.1,0c-4.3,0-6.1-1.6-6.1-6.8l0-5.1l19.1,0v-8.1C290.9,17.1,288,11.8,279.5,11.8z M283.9,26.1h-12.2v-4
				c0-4.7,2.4-6.7,6.1-6.7c3.6,0,6,2,6,6.7V26.1z"/>
			<path fill="#8AC640" d="M132.1,15.9c0-0.9,0-3.6,0-3.6h-6.9v35c0,0,1.9,0,1.9,0c3.9,0,5-2.7,5-6.1c0-1.1,0-17,0-17
				c0-3.1,2.9-6.6,7.3-6.6c2.1,0,3.8,0.3,5.2,0.9V12c-1.1-0.2-2.1-0.3-3.2-0.3C137.8,11.6,134.4,13.8,132.1,15.9z"/>
			<path fill="#8AC640" d="M303.6,15.9c0-0.9,0-3.6,0-3.6h-6.9v35c0,0,1.8,0,1.9,0c3.9,0,5-2.7,5-6.1c0-1.1,0-17,0-17
				c0-3.1,2.9-6.6,7.4-6.6c2.1,0,3.8,0.3,5.2,0.9V12c-1.1-0.2-2.2-0.3-3.2-0.3C309.3,11.6,305.9,13.8,303.6,15.9z"/>
			<path fill="#8AC640" d="M197,17.1c0-0.5-0.1-1-0.2-1.5c0,0,0,0,0-0.1c-0.1-0.5-0.2-1-0.4-1.4c0,0,0,0,0-0.1
				c-0.2-0.4-0.5-0.8-0.8-1.1c0,0,0,0,0,0c-0.2-0.2-0.3-0.3-0.6-0.4c-0.6-0.4-1.4-0.5-2.4-0.6c0,0-0.1,0-0.1,0h-2
				c0,0-8.9,23.1-9.5,24.6c-0.8-1.9-7.9-17.6-8.8-19.9c-1.2-2.7-2.5-4.6-4.8-4.6h-4.2v0v35.3h4.2h0.5c0,0,0-21.2,0-24
				c1.2,2.6,10.9,24.5,10.9,24.5h0c0.1,0,0.1,0,0.2,0c0,0,0,0,0,0c1.1,0,2.2,0.1,3-2.2c0.3-0.9,4.7-12.1,8.4-21.5
				c0,6.1,0,23.3,0,23.3h6.5V18c0-0.3,0-0.5,0-0.8C197,17.2,197,17.1,197,17.1z"/>
			<path fill="#8AC640" d="M217.5,12L206,12c0,0-0.9,5.1,4.1,5.1c3.8,0,5,0,5,0c4.3,0,6.2,1.6,6.2,6.7v2.3h-7.9
				c-8.5,0-11.4,5.4-11.3,10.4v0.2c-0.1,5,2.8,10.4,11.3,10.4H228v-10l0,0l0-16.3C228.1,16.6,224.8,12,217.5,12z M221.2,34.6
				L221.2,34.6v8.3h-6.7c-3.7,0-5.5-1.9-5.5-6.4c0.1-4.5,1.9-6.4,5.5-6.4h6.7V34.6z"/>
			<path fill="#8AC640" d="M332.9,12l-11.4,0c0,0-0.9,5.1,4.1,5.1c3.7,0,5,0,5,0c4.3,0,6.2,1.6,6.2,6.7v2.3h-7.9
				c-8.5,0-11.4,5.4-11.3,10.4v0.2c-0.1,5,2.8,10.4,11.3,10.4h14.7v-10l0,0V20.9C343.5,16.6,340.2,12,332.9,12z M336.6,34.6
				L336.6,34.6v8.3h-6.7c-3.7,0-5.5-1.9-5.6-6.4c0.1-4.5,1.9-6.4,5.6-6.4h6.7V34.6z"/>
			<path fill="#8AC640" d="M108.3,2.2h-8.1h-6.9c0,0,0,43.7,0,44.8l6.9,0V6.2c2.3,0,6.8,0,7,0c3.6,0,5.5,2,5.5,6.7V18
				c0,4.7-1.9,6.7-5.5,6.7c-0.2,0-1.1,0-1.6,0c-1.9,0-3.5,0.6-3.5,2.9c0,0,0,1.1,0,1.1h6.1c8.5,0,11.4-5.4,11.2-10.4v-5.7
				C119.6,7.6,116.7,2.2,108.3,2.2z"/>
		</g>
	</g>
	<g>
		<g>
			<path fill="#303C42" d="M8,26.9c4.4-2.2,10-4.4,10.6-4.8c1.1-0.7-2.4-3.9,1.3-9c0.4-0.5,2.5-0.3,5.8,0.5c5.2,1.2,7.6-2,16.7-2.2
				c20.5-0.5,24.2,11,24.2,11.6c0,0.1-0.2,0.4-0.4,0.6c6.5,3.4,9.5,6.7,9.6,7.2c0.1,0.4-0.6,6.8-6.8,12.6c0,0.1-1,6.9-7.6,7.9
				c-0.3,0-6.4-5.7-16.3-3.2c-5.8,1.5-13,6.7-14.6,16c-0.3,1.5-0.4,3.2-0.3,5v0c1.7,1.2,3.5,2.3,5.5,3.3
				c8.8-4.6,16.8-11.7,22.9-21.8c0.5,0.2,1.3,0.7,1.9,1.1c-5.9,10-14.7,18.1-24.3,22.9c-0.2,0.1-0.3,0.1-0.5,0.1
				c-0.2,0-0.3,0-0.5-0.1C22.6,68,13,57.6,7,43.6C1.2,30.1,1,18.2,1,16.9C1,10.8,21.6,2.2,35.9,2.2c14.4,0,34.9,8.7,34.9,14.8
				c0,2-0.3,5.3-0.7,7.9c-0.8-0.5-1.5-0.9-2.1-1.3c0.4-2.9,0.6-5.4,0.6-6.6c0-3.5-17.8-12.5-32.7-12.5c-14.9,0-32.7,9-32.7,12.5
				c0,0.1,0,4.9,1.5,11.7C4.7,28.6,6.8,27.5,8,26.9z M27.4,19.8c-2.1-0.6-1.7,0.5-1.2,1.1c0.5,0.7,1.1,1.1,1.3,1
				c4.7-1.5,5.2-1.4,5.3-1.5C32.8,20.2,30.7,20.8,27.4,19.8z M5.5,32c2.3,8.8,6.8,20,15.8,29.4c0,0,1.5-2.5,2.3-3.6
				c3.8-5.1,8.5-8.4,11.3-9.8c2.6-1.3,0.3-1.5-2.1-4.6c-1.5-1.9-2.1-4.1-1.8-4.2c0.3-0.2,4.5,6.8,10.7,5.7
				c14.6-2.4,20.2,3.1,20.9,3.4c2,0,3.7-2.9,3.7-3.7c0-0.6-5.9-4-10.7-4.5c-0.2-0.9,0.5-1.9,1.7-1.8c2.8,0.3,6.4,6.3,11.6,1.9
				c1.4-1.2,3.4-4.7,4.1-6.2c0.3-0.6,0.8-1.5-0.6-1.3c-1.5,0.2-0.1,1.8-0.5,1.6c-1-0.4-3.2-3-1.9-3.3c1-0.3,2.3-0.2,3.5-0.1
				c0.3,0,0.4,0.1,0.2-0.1c-1.1-1.3-4.1-3.3-6.3-4.5c-1.2-0.7-3-1.5-3.4-1.6c-0.5-0.1-1.2,0-2.3,0.6c-1.5,0.8-3.6,1-4,0.6
				c-0.3-0.3,1.5-0.2,2.1-1.1c0.1-0.2-0.6-1.7-1-1.7c-1.8,0.2-4.4-0.2-4.9-1.2c-0.1-0.2,1.3,0.2,4.3,0c1.1-0.1,1.7-0.2,2.5-0.4
				c0.8-0.2-0.2-0.8,0.2-1c0.5-0.2,2.3,2.3,3.2,2.6c0.3,0.1-0.5-1.4-1-2.1c-1.4-2-5.3-6.3-15.3-7.1c-5.9-0.5-11.8,0.7-16,2.1
				c-2.7,0.9,3.4,1.9,2.7,2c-5.2,0.7-11.6-3.5-12.7-2.1c-1.6,2.1-0.8,6.2,2.6,7.6C19.7,25,13.3,28,8.8,30.3C7.5,30.9,5.5,32,5.5,32z
				"/>
		</g>
	</g>
</g>
</svg>
