<?xml version="1.0" encoding="UTF-8" standalone="no"?>
<svg width="199px" height="96px" viewBox="0 0 199 96" version="1.1" xmlns="http://www.w3.org/2000/svg" xmlns:xlink="http://www.w3.org/1999/xlink" xmlns:sketch="http://www.bohemiancoding.com/sketch/ns">
    <!-- Generator: Sketch 3.0.1 (7597) - http://www.bohemiancoding.com/sketch -->
    <title>Imported Layers</title>
    <description>Created with Sketch.</description>
    <defs></defs>
    <g id="Page-1" stroke="none" stroke-width="1" fill="none" fill-rule="evenodd" sketch:type="MSPage">
        <g id="Final_Project4" sketch:type="MSArtboardGroup" transform="translate(-621.000000, -252.000000)">
            <g id="Header_Bg" sketch:type="MSLayerGroup">
                <g id="Imported-Layers" transform="translate(621.000000, 254.000000)" sketch:type="MSShapeGroup">
                    <path d="M27,0 L50.3982744,92 C50.3982744,92 74.6196772,21.1532796 102,20.7613711 M177,0 L153.60103,92 C153.60103,92 129.380323,21.1532796 102,20.7613711 M15,0 L39,0 M166,0 L190,0 M39,92 L63,92 M72,80 L96,80 M90,53 L114,53 M142,92 L166,92 M27,0 L80.9382132,80 L102,52.6627001 M133,80 L109,80 M177,0 L123.061787,80 L102,52.6627001" id="Stroke-1" stroke="#F2F2F1" stroke-width="3.81099987" stroke-linejoin="bevel"></path>
                    <path d="M64.5593483,73 L63.8041117,73 L61.5,64.2917789 L59.1958883,73 L58.4413628,73 L56,63 L56.781549,63 L58.8388932,71.6936576 L61.1159814,63 L61.8840186,63 L64.1611068,71.6936576 L66.218451,63 L67,63 L64.5593483,73" id="Fill-2" fill="#343433"></path>
                    <path d="M76,63 L77,63 L77,73 L76,73 L76,63 Z" id="Fill-3" fill="#343433"></path>
                    <path d="M93.272028,73 L87.727972,64.3063424 L87.727972,73 L87,73 L87,63 L87.727972,63 L93.272028,71.665987 L93.272028,63 L94,63 L94,73 L93.272028,73" id="Fill-4" fill="#343433"></path>
                    <path d="M105,73 L105,63 L111,63 L111,63.67356 L105.74964,63.67356 L105.74964,67.6202578 L110.222276,67.6202578 L110.222276,68.294546 L105.74964,68.294546 L105.74964,72.3257118 L111,72.3257118 L111,73 L105,73" id="Fill-5" fill="#343433"></path>
                    <path d="M127.087055,73 L124.623229,68.3935775 L121.782203,68.3935775 L121.782203,73 L121,73 L121,63 L124.927544,63 C125.343066,63 125.731537,63.058982 126.094461,63.1754897 C126.456634,63.2927256 126.770717,63.463118 127.036711,63.6881235 C127.301954,63.9124008 127.509339,64.1934756 127.659618,64.5306197 C127.809146,64.8677638 127.883534,65.251511 127.883534,65.6825894 C127.883534,66.4311512 127.668635,67.0384475 127.238836,67.5015656 C126.809038,67.9646836 126.231967,68.2574092 125.50687,68.3790141 L128,73 L127.087055,73 L127.087055,73 Z M126.843905,65.1108711 C126.738664,64.8617711 126.591044,64.6537077 126.401045,64.4866811 C126.209634,64.3203744 125.982907,64.1972642 125.719452,64.1180706 C125.455997,64.0403168 125.169939,64 124.86128,64 L122,64 L122,68 L124.86128,68 C125.169939,68 125.455997,67.9604032 125.719452,67.8819294 C125.982907,67.8034557 126.209634,67.6803456 126.401045,67.5133189 C126.591044,67.3470122 126.738664,67.1389489 126.843905,66.8891289 C126.947733,66.6385889 127,66.3426926 127,66.0007199 C127,65.6580274 126.947733,65.3614111 126.843905,65.1108711 L126.843905,65.1108711 Z" id="Fill-6" fill="#343433"></path>
                    <path d="M139.341938,68.8559674 L139.341938,73 L138.658062,73 L138.658062,68.8559674 L136,63 L136.733756,63 L139.02494,68.0564334 L141.265587,63 L142,63 L139.341938,68.8559674" id="Fill-7" fill="#343433"></path>
                    <path d="M30,34 L23.8066776,57 L19.428905,57 L14.8129816,40.0826504 L10.6222274,57 L6.32990894,57 L0,34 L4.42890497,34 L8.90824189,50.7657181 L13.0821854,34 L17.3072613,34 L21.9224842,50.7657181 L26.3177679,34 L30,34" id="Fill-8" fill="#343433"></path>
                    <path d="M39,34 L43,34 L43,57 L39,57 L39,34 Z" id="Fill-9" fill="#343433"></path>
                    <path d="M71,57 L67.0588589,57 L58.5176777,42.3063477 C58.3856256,42.0823782 58.1718919,41.7172105 57.8744344,41.2115402 C57.7430631,40.9868751 57.5395395,40.6335319 57.2645445,40.1501195 L57.2645445,57 L54,57 L54,34 L58.485005,34 L66.3666066,47.5473735 C66.4326326,47.6593583 66.9111512,48.4856806 67.8008008,50.0242538 L67.8008008,34 L71,34 L71,57" id="Fill-10" fill="#343433"></path>
                    <path d="M83,57 L83,34 L91.5329132,34 C94.6883754,34 97.2212885,35.1094142 99.1330532,37.3275471 C101.043417,39.5463755 102,42.2847854 102,45.5420812 C102,48.8000726 101.015406,51.5238758 99.0483193,53.7141863 C97.0798319,55.9051925 94.2640056,57 90.5994398,57 L83,57 L83,57 Z M87,53 L90.4163456,53 C92.2497248,53 93.8051734,52.3184101 95.0833792,50.9545493 C96.3608971,49.5913695 97,47.5622606 97,44.8679037 C97,42.6685675 96.4413869,40.8076432 95.3248487,39.2844497 C94.2083104,37.7612563 92.7333517,37 90.9006604,37 L87,37 L87,53 L87,53 Z" id="Fill-11" fill="#343433"></path>
                    <path d="M135,57 L130.688874,57 L130.688874,36.8643058 L124.195949,57 L121.980115,57 L115.453155,36.8643058 L115.453155,57 L112,57 L112,34 L118.613466,34 L123.52659,48.8112015 L128.352499,34 L135,34 L135,57" id="Fill-12" fill="#343433"></path>
                    <path d="M146,34 L150,34 L150,57 L146,57 L146,34 Z" id="Fill-13" fill="#343433"></path>
                    <path d="M175,57 L161,57 L161,34 L165.316477,34 L165.316477,53.2425984 L175,53.2425984 L175,57" id="Fill-14" fill="#343433"></path>
                    <path d="M199,57 L185,57 L185,34 L189.316477,34 L189.316477,53.2425984 L199,53.2425984 L199,57" id="Fill-15" fill="#343433"></path>
                </g>
            </g>
        </g>
    </g>
</svg>