<?xml version="1.0" encoding="UTF-8" standalone="no"?>
<svg width="42px" height="42px" viewBox="0 0 42 42" version="1.1" xmlns="http://www.w3.org/2000/svg" xmlns:xlink="http://www.w3.org/1999/xlink" xmlns:sketch="http://www.bohemiancoding.com/sketch/ns">
    <!-- Generator: Sketch Beta 3.1 (8740) - http://www.bohemiancoding.com/sketch -->
    <title>BA Logo 3</title>
    <desc>Created with Sketch Beta.</desc>
    <defs></defs>
    <g id="Page-1" stroke="none" stroke-width="1" fill="none" fill-rule="evenodd" sketch:type="MSPage">
        <g id="BA-Logo-3" sketch:type="MSLayerGroup" transform="translate(1.000000, 1.000000)">
            <circle id="Oval-1" stroke="#26353A" stroke-width="1.25" sketch:type="MSShapeGroup" cx="20" cy="20" r="20"></circle>
            <path d="M8.68294182,14.70663 L8.68294182,14.4429295 C8.77934895,14.4202454 8.8559064,14.4060681 8.91261648,14.4003971 L9.71222455,14.3578648 C10.3757324,14.3011547 11.1186233,14.2557873 11.9409194,14.2217613 C12.2698378,14.2104193 12.7887273,14.2047483 13.4976032,14.2047483 C14.4616745,14.2047483 15.1677044,14.2756349 15.615714,14.4174101 C16.2678798,14.6272373 16.7541614,14.9433913 17.0745734,15.3658813 C17.3949853,15.7883714 17.5551889,16.2576402 17.5551889,16.7737019 C17.5551889,17.6130111 16.9569065,18.3190409 15.7603239,18.8918127 L15.7177916,18.9598644 C16.3302604,19.1243237 16.8321371,19.353996 17.2234366,19.6488884 C17.6147361,19.9437808 17.915295,20.3038844 18.1251223,20.72921 C18.2782395,21.0411154 18.3547969,21.4494218 18.3547969,21.9541415 C18.3547969,22.7991216 17.9705919,23.5519366 17.2021704,24.212609 C16.4337489,24.8732814 15.3747041,25.2036126 14.0250043,25.2036126 L12.7575404,25.2036126 L11.4730636,25.246145 C10.3388621,25.257487 9.67536415,25.2631579 9.48254989,25.2631579 C9.28406463,25.2631579 9.0884178,25.2546515 8.89560354,25.2376385 L8.89560354,25.1440673 C8.89560354,25.0760152 8.90978085,25.0278124 8.93813588,24.9994574 C8.97216193,24.9654313 9.03737754,24.9370767 9.13378467,24.9143927 C9.84266062,24.7669465 10.2438784,24.6662876 10.33745,24.612413 C10.4310216,24.5585385 10.4948195,24.4720569 10.5288456,24.3529657 C10.5968977,24.1261254 10.6309232,23.5420204 10.6309232,22.6006331 C10.6309232,22.515568 10.6280877,22.4078205 10.6224167,22.2773873 C10.6110747,21.8974298 10.6054038,21.6790993 10.6054038,21.6223892 L10.6054038,20.7377164 C10.6054038,19.2405704 10.588391,17.9334228 10.554365,16.8162343 L10.5458585,15.106434 L10.537352,14.8937723 C10.0553164,14.8257202 9.6299972,14.7831883 9.2613817,14.7661753 C9.02319938,14.7605043 8.83038801,14.740656 8.68294182,14.70663 L8.68294182,14.70663 Z M12.06001,19.0109033 C12.3435603,19.0676133 12.6412838,19.0959679 12.9531892,19.0959679 C14.1781268,19.0959679 15.008917,18.8265991 15.4455846,18.2878534 C15.8822522,17.7491077 16.1005827,17.2132055 16.1005827,16.6801308 C16.1005827,16.4419485 16.062304,16.1995165 15.9857454,15.9528277 C15.9091868,15.7061389 15.7730846,15.4835552 15.5774349,15.2850699 C15.3817851,15.0865846 15.1393532,14.9391406 14.8501318,14.8427335 C14.3567541,14.6782743 13.852042,14.5960459 13.3359803,14.5960459 C12.8539447,14.5960459 12.4059418,14.6499197 11.9919582,14.7576688 C11.9862872,14.87676 11.9834517,14.9646593 11.9834517,15.0213694 C11.9834517,15.0780794 11.9891227,15.2397007 12.0004647,15.5062381 C12.0061357,15.6763683 12.0089712,15.846496 12.0089712,16.0166262 L11.9834517,17.0459089 L11.9919582,17.6583747 L12.0515035,18.8577868 L12.06001,19.0109033 Z M14.0590302,24.7953021 C14.6204599,24.7556051 15.0911465,24.6365157 15.471104,24.4380304 C15.6469052,24.3472943 15.8553116,24.1842553 16.0963295,23.9489085 C16.3373473,23.7135616 16.5244877,23.4314332 16.6577564,23.1025148 C16.7910251,22.7735964 16.8576584,22.4560247 16.8576584,22.1497903 C16.8576584,21.917279 16.8108733,21.6308974 16.7173017,21.2906369 C16.6237301,20.9503765 16.4649442,20.6512353 16.2409394,20.3932045 C16.0169346,20.1351736 15.6837679,19.922514 15.2414293,19.7552193 C14.7990907,19.5879246 14.3113914,19.5042785 13.7783167,19.5042785 C12.7461933,19.5042785 12.1677592,19.5241267 12.042997,19.5638237 C12.037326,19.6942569 12.0344906,19.7906626 12.0344906,19.8530437 L12.042997,20.167783 L12.0344906,20.8057682 L12.0344906,21.5288181 C12.0515036,22.8615048 12.0826937,23.6497631 12.1280617,23.8936164 C12.1734298,24.1374697 12.3279624,24.3472939 12.5916643,24.5230951 C12.8553661,24.6988963 13.3444832,24.7896311 14.0590302,24.7953021 L14.0590302,24.7953021 Z M19.0693403,24.973938 C19.1487344,24.9285699 19.219621,24.9058862 19.2820021,24.9058862 L19.4776508,24.9058862 C19.5173479,24.9058862 19.585399,24.9030507 19.6818061,24.8973797 C20.1184737,24.8576827 20.3765007,24.8179862 20.4558948,24.7782892 C20.65438,24.67054 20.8245077,24.4833996 20.9662829,24.2168622 C21.2611753,23.6384194 21.5929243,22.8189711 21.9615398,21.7584927 C22.137341,21.253773 22.247924,20.9475432 22.293292,20.8397941 C22.4350672,20.4995336 22.5711694,20.1422655 22.7016025,19.767979 L23.5012106,17.5307777 C23.6259728,17.1791752 23.9265317,16.3739042 24.4028963,15.1149405 C24.5219875,14.7973641 24.666596,14.3720449 24.8367262,13.8389702 L25.0834138,13.8219572 L25.3811402,13.8304637 C25.6249936,14.3124994 25.8404886,14.8313888 26.0276319,15.3871475 C26.12971,15.6820399 26.2970022,16.1215364 26.5295135,16.7056502 L27.8224968,20.2018089 L28.5115208,22.0987515 C28.8744653,23.1762429 29.112644,23.8383231 29.2260642,24.085012 C29.3394843,24.3317008 29.4443964,24.4947398 29.5408035,24.5741339 C29.5691586,24.5968179 29.6754884,24.6308435 29.8597961,24.6762115 C30.0441039,24.7215796 30.1731174,24.7556051 30.2468405,24.7782892 C30.5077068,24.8520123 30.6891763,24.9143924 30.7912545,24.9654315 C30.8139385,25.0278126 30.8252803,25.0760154 30.8252803,25.1100415 C30.8252803,25.1383965 30.816774,25.1809284 30.7997609,25.2376385 C30.6182887,25.2433095 30.4906929,25.246145 30.4169698,25.246145 C30.1277484,25.246145 29.6173654,25.2376386 28.8858054,25.2206256 L28.0351585,25.1951061 L27.0058758,25.2121191 C26.9378237,25.2121191 26.8683549,25.2078659 26.7974673,25.1993594 C26.7265797,25.1908529 26.6656173,25.1865997 26.6145782,25.1865997 L26.4274359,25.1865997 C26.3650548,25.1809287 26.3083456,25.1639159 26.2573065,25.1355609 C26.2573065,25.0561668 26.2714839,24.9796093 26.2998389,24.9058862 C26.367891,24.8718602 26.4302711,24.8520119 26.4869812,24.8463409 L27.3801604,24.7867956 C27.6126718,24.7754536 27.7884703,24.7442635 27.9075615,24.6932245 C27.9415876,24.5911463 27.9586003,24.5145889 27.9586003,24.4635498 C27.9586003,24.3614717 27.8848783,24.0977738 27.7374321,23.6724482 C27.635354,23.3888978 27.546037,23.119529 27.4694784,22.8643337 C27.3929198,22.6091383 27.0909431,21.7698418 26.5635394,20.3464189 C26.3310281,20.3067218 26.1268749,20.2868736 25.9510737,20.2868736 L24.1306893,20.3038865 L23.5947818,20.2953801 C23.4019675,20.2953801 23.1893079,20.3095574 22.9567966,20.3379124 C22.8830735,20.5080426 22.8348707,20.6299675 22.8121866,20.7036906 L22.0636174,23.0429695 C21.746041,23.9333177 21.5872551,24.4238525 21.5872551,24.5145886 C21.5872551,24.5656277 21.6127743,24.6506915 21.6638133,24.7697827 C21.7829045,24.8038087 21.9416903,24.8349988 22.1401756,24.8633539 L23.2970554,24.9654315 C23.3594365,25.0164706 23.3906265,25.0618379 23.3906265,25.101535 C23.3906265,25.12989 23.3821201,25.1724219 23.3651071,25.229132 C23.1099118,25.234803 22.914265,25.2376385 22.7781608,25.2376385 C22.3244802,25.2376385 21.7970844,25.2234612 21.1959576,25.1951061 C20.9180782,25.1837641 20.7195959,25.1780932 20.6005047,25.1780932 C20.4814136,25.1780932 20.2744249,25.1837641 19.9795325,25.1951061 C19.7867182,25.2064482 19.6477806,25.2121191 19.5627155,25.2121191 C19.4266113,25.2121191 19.2508127,25.2036127 19.0353145,25.1865997 L19.0353145,25.1355609 C19.0353145,25.0958638 19.0466563,25.04199 19.0693403,24.973938 L19.0693403,24.973938 Z M23.126926,19.8700566 C23.7337238,19.9040827 24.4255764,19.9210954 25.2025044,19.9210954 C25.644843,19.9210954 26.0333012,19.9069181 26.3678906,19.8785631 C26.3111806,19.6573938 26.245965,19.4504051 26.1722419,19.2575909 C25.8036264,18.2708355 25.5994731,17.726427 25.5597761,17.6243488 L24.7856874,15.6593545 L24.7006227,15.5062381 C24.6665967,15.5742902 24.5418364,15.8663427 24.3263381,16.3824044 C23.9633936,17.2670816 23.7025312,17.9560987 23.543743,18.4494763 C23.4700199,18.6706456 23.3934624,18.8903939 23.3140683,19.1087277 C23.2346742,19.3270614 23.1850536,19.4801764 23.1652051,19.568077 C23.1453566,19.6559776 23.1155842,19.7452946 23.0758872,19.8360307 L23.126926,19.8700566 Z" id="BA" fill="#26353A" sketch:type="MSShapeGroup"></path>
        </g>
    </g>
</svg>